<?xml version="1.0" standalone="no"?>
<!DOCTYPE svg PUBLIC "-//W3C//DTD SVG 20010904//EN"
 "http://www.w3.org/TR/2001/REC-SVG-20010904/DTD/svg10.dtd">
<svg version="1.0" xmlns="http://www.w3.org/2000/svg"
 width="270.000000pt" height="270.000000pt" viewBox="0 0 270.000000 270.000000"
 preserveAspectRatio="xMidYMid meet">
<metadata>
Created by potrace 1.14, written by Peter Selinger 2001-2017
</metadata>
<g transform="translate(0.000000,270.000000) scale(0.100000,-0.100000)"
fill="#000000" stroke="none">
<path d="M2369 2571 c-7 -36 -3 -161 5 -162 6 -1 45 -2 86 -3 l75 -1 3 -113 3
-112 27 -1 c15 -1 50 -1 77 -1 l50 0 3 116 3 116 -28 1 c-15 1 -52 1 -80 1
-59 -1 -55 -8 -56 101 0 33 -5 57 -11 58 -47 4 -156 4 -157 0z"/>
<path d="M2059 2306 c-2 -2 -24 -6 -49 -9 -42 -6 -54 -8 -112 -23 -13 -3 -34
-7 -47 -10 -14 -3 -32 -10 -40 -15 -13 -9 -13 -9 3 -4 25 7 181 7 220 0 60
-12 132 -50 172 -91 88 -89 101 -240 37 -418 -28 -78 -111 -244 -133 -266 -3
-3 -23 -32 -45 -65 -22 -33 -42 -62 -46 -65 -3 -3 -24 -28 -46 -57 -22 -29
-43 -49 -47 -46 -3 4 -6 1 -6 -7 0 -12 -213 -230 -225 -230 -3 0 -16 -10 -29
-23 -52 -49 -271 -217 -285 -217 -6 0 -11 -4 -11 -8 0 -5 -19 -19 -41 -33 -23
-13 -52 -31 -64 -39 -157 -102 -407 -222 -512 -245 -151 -34 -174 -36 -245
-31 -203 14 -304 143 -300 386 1 52 4 105 6 117 3 11 8 43 12 70 10 61 8 49
23 113 8 30 18 64 24 75 9 17 8 18 -5 7 -21 -17 -118 -210 -151 -301 -71 -193
-81 -379 -27 -494 43 -91 120 -150 233 -178 77 -19 243 -6 377 29 125 34 123
33 282 110 l109 52 170 0 169 0 0 108 0 108 84 62 84 61 13 -32 c25 -60 125
-170 179 -199 14 -7 27 -15 30 -18 8 -8 103 -50 125 -55 11 -2 38 -10 60 -16
24 -6 162 -13 336 -16 l296 -5 0 154 0 154 -266 0 c-146 0 -279 3 -296 6 -103
19 -171 86 -189 186 l-6 32 63 0 c34 0 204 1 378 1 l317 0 -1 144 c-1 124 -3
145 -17 146 -8 0 -124 1 -257 1 -223 1 -241 2 -230 18 68 93 152 190 165 191
9 0 34 1 55 2 20 1 37 -1 37 -5 0 -4 6 -5 14 -2 23 9 106 10 106 1 0 -5 5 -5
11 -1 6 3 35 6 64 5 l52 -1 -1 153 -1 152 -87 1 c-49 0 -90 2 -92 5 -2 2 5 30
15 63 10 32 20 72 21 88 1 16 5 31 8 33 8 5 4 134 -5 175 -22 99 -99 180 -199
208 -23 6 -231 13 -237 8z"/>
<path d="M955 1722 c-2 -3 -17 -6 -32 -8 -61 -7 -80 -11 -133 -29 -206 -68
-342 -236 -378 -470 -13 -78 -8 -286 8 -350 6 -27 13 -59 16 -70 8 -45 79
-167 123 -213 94 -99 157 -131 218 -112 48 16 266 111 273 120 3 3 37 23 75
44 108 58 108 61 2 62 -203 3 -326 81 -359 227 -16 70 -16 196 -1 260 35 153
131 223 317 233 49 2 92 7 97 9 4 3 10 1 14 -5 4 -6 11 -7 17 -4 6 4 57 6 114
6 l104 -1 0 153 0 153 -236 -1 c-129 0 -237 -2 -239 -4z"/>
<path d="M2016 1708 c-99 -20 -158 -43 -221 -83 -49 -31 -145 -121 -145 -136
0 -4 -6 -14 -13 -21 -15 -15 -62 -121 -70 -158 -23 -100 -32 -169 -31 -240 3
-131 4 -140 15 -140 30 0 349 308 349 336 0 32 43 92 86 119 30 19 60 53 93
104 61 96 124 221 116 230 -12 11 -98 6 -179 -11z"/>
</g>
</svg>
